# xmcd
#
# Track frame offsets: 
#        150
#        21116
#        36377
#        47884
#        60885
#        69372
#        80183
#        99545
#        112740
#        129508
#        140656
#        151956
#        160734
#        170320
#
# Disc length: 2466 seconds
#
# Revision: 1
# Processed by: cddbd v1.5.2PL0 Copyright (c) Steve Scherf et al.
# Submitted via: ExactAudioCopyFreeDBPlugin 1.0
#
DISCID=b209a00e
DTITLE=Various Artist - Crazy Country Spectacular Vol 3
DYEAR=1970
DGENRE=Country
TTITLE0=Medley -1- Patsy Cline
TTITLE1=I Like Beer -2- Tom T Hall
TTITLE2=You'll Come -3 - Porter Waggoner
TTITLE3=Love Is Fair -4- Lorrie Morgan
TTITLE4=Ring On Her Finger -5- Lee Greenwood
TTITLE5=Wabash Cannonball -6- Boxcar Willie
TTITLE6=Tip Of My Fingers -7- Barbara Fairchild
TTITLE7=Ball And Chain -8- Kathy Mattea
TTITLE8=Long Hard Road -9- Nitty Gritty Dirt Band
TTITLE9=Let Your Love Flow -10- The Bellamy Brothers
TTITLE10=Stand By Your Man -11- Tammy Wynette
TTITLE11=Drinking My Way Back Home -12- Gene Watson
TTITLE12=Rocky Top -13- Dottie West
TTITLE13=Evangerlina -14- Hoyt Axton
EXTD=
EXTT0=
EXTT1=
EXTT2=
EXTT3=
EXTT4=
EXTT5=
EXTT6=
EXTT7=
EXTT8=
EXTT9=
EXTT10=
EXTT11=
EXTT12=
EXTT13=
PLAYORDER=
